# xmcd CD database file
#
# Track frame offsets:
#	150
#	14917
#	28880
#	47767
#	62928
#	74230
#	90366
#	109466
#	124136
#
# Disc length: 1994 seconds
#
# Revision: 0
# Processed by: cddbd v1.5.2PL0 Copyright (c) Steve Scherf et al.
# Submitted via: CDex 1.70beta2
#
DISCID=8c07c809
DTITLE=Obsession - All We Need
DYEAR=2009
DGENRE=Jazz
TTITLE0=All We Need
TTITLE1=Obsession
TTITLE2=Goody, Goody
TTITLE3=Route 66
TTITLE4=Trickie, Trickie
TTITLE5=Blame It On The Boogie
TTITLE6=Fragile
TTITLE7=Signed, Sealed, Delivered
TTITLE8=Easy
EXTD=YEAR: 2009
EXTT0=
EXTT1=
EXTT2=
EXTT3=
EXTT4=
EXTT5=
EXTT6=
EXTT7=
EXTT8=
PLAYORDER=
